<svg xmlns="http://www.w3.org/2000/svg" viewBox="0 0 800 600">
  <!-- Background -->
  <rect width="800" height="600" fill="#0a1929" />
  
  <!-- Grid Lines -->
  <g stroke="#193354" stroke-width="1.5" opacity="0.5">
    <line x1="0" y1="150" x2="800" y2="150" />
    <line x1="0" y1="300" x2="800" y2="300" />
    <line x1="0" y1="450" x2="800" y2="450" />
    <line x1="200" y1="0" x2="200" y2="600" />
    <line x1="400" y1="0" x2="400" y2="600" />
    <line x1="600" y1="0" x2="600" y2="600" />
  </g>
  
  <!-- Title -->
  <text x="400" y="50" font-family="Arial, sans-serif" font-size="34" fill="#ffffff" text-anchor="middle" font-weight="bold">ContextRAG Architecture</text>
  
  <!-- Document Collection (Left Side) -->
  <g transform="translate(25, 175)">
    <rect x="0" y="0" width="150" height="260" rx="12" fill="#132b4a" stroke="#3a7bd5" stroke-width="4" />
    <text x="75" y="40" font-family="Arial, sans-serif" font-size="20" fill="#ffffff" text-anchor="middle">Document</text>
    <text x="75" y="65" font-family="Arial, sans-serif" font-size="20" fill="#ffffff" text-anchor="middle">Collection</text>

    <!-- Document Stack -->
    <g transform="translate(25, 85)">
      <!-- HTML Document -->
      <rect x="0" y="0" width="100" height="35" fill="#254980" stroke="#3a7bd5" stroke-width="2" />
      <text x="50" y="22" font-family="Arial, sans-serif" font-size="14" fill="#ffffff" text-anchor="middle">HTML</text>
      
      <!-- Markdown Document -->
      <rect x="0" y="45" width="100" height="35" fill="#254980" stroke="#3a7bd5" stroke-width="2" />
      <text x="50" y="67" font-family="Arial, sans-serif" font-size="14" fill="#ffffff" text-anchor="middle">Markdown</text>
      
      <!-- Text Document -->
      <rect x="0" y="90" width="100" height="35" fill="#254980" stroke="#3a7bd5" stroke-width="2" />
      <text x="50" y="112" font-family="Arial, sans-serif" font-size="14" fill="#ffffff" text-anchor="middle">Text</text>
      
      <!-- Release Notes -->
      <rect x="0" y="135" width="100" height="35" fill="#254980" stroke="#3a7bd5" stroke-width="2" />
      <text x="50" y="157" font-family="Arial, sans-serif" font-size="14" fill="#ffffff" text-anchor="middle">Release Notes</text>
    </g>
  </g>
  
  <!-- Central Processing System -->
  <g transform="translate(225, 110)">
    <!-- Main Container -->
    <rect x="0" y="0" width="350" height="380" rx="20" fill="#132b4a" stroke="#3a7bd5" stroke-width="5" />
    
    <!-- Data Processing Layer -->
    <g transform="translate(20, 20)">
      <rect x="0" y="0" width="310" height="90" rx="10" fill="#183869" stroke="#3a7bd5" stroke-width="2.5" />
      <text x="155" y="25" font-family="Arial, sans-serif" font-size="18" fill="#ffffff" text-anchor="middle" font-weight="bold">Data Processing Layer</text>
      
      <!-- HTML to Markdown Conversion -->
      <rect x="20" y="35" width="130" height="40" rx="5" fill="#254980" stroke="#6badfb" stroke-width="1.5" />
      <text x="85" y="60" font-family="Arial, sans-serif" font-size="12" fill="#ffffff" text-anchor="middle">HTML → Markdown</text>
      
      <!-- Document Cleaning -->
      <rect x="160" y="35" width="130" height="40" rx="5" fill="#254980" stroke="#6badfb" stroke-width="1.5" />
      <text x="225" y="60" font-family="Arial, sans-serif" font-size="12" fill="#ffffff" text-anchor="middle">Document Cleaning</text>
    </g>
    
    <!-- Length Classification -->
    <g transform="translate(20, 125)">
      <rect x="0" y="0" width="310" height="110" rx="10" fill="#183869" stroke="#ffb454" stroke-width="2.5" />
      <text x="155" y="25" font-family="Arial, sans-serif" font-size="18" fill="#ffffff" text-anchor="middle" font-weight="bold">Length Classification</text>
      
      <!-- Short -->
      <rect x="20" y="40" width="85" height="55" rx="5" fill="#254980" stroke="#ffb454" stroke-width="1.5" />
      <text x="62" y="60" font-family="Arial, sans-serif" font-size="14" fill="#ffffff" text-anchor="middle">Short</text>
      <text x="62" y="80" font-family="Arial, sans-serif" font-size="10" fill="#ffffff" text-anchor="middle">≤3500 tokens</text>
      
      <!-- Medium -->
      <rect x="115" y="40" width="85" height="55" rx="5" fill="#254980" stroke="#ffb454" stroke-width="1.5" />
      <text x="157" y="60" font-family="Arial, sans-serif" font-size="14" fill="#ffffff" text-anchor="middle">Medium</text>
      <text x="157" y="80" font-family="Arial, sans-serif" font-size="10" fill="#ffffff" text-anchor="middle">3500-15000</text>
      
      <!-- Long -->
      <rect x="210" y="40" width="85" height="55" rx="5" fill="#254980" stroke="#ffb454" stroke-width="1.5" />
      <text x="252" y="60" font-family="Arial, sans-serif" font-size="14" fill="#ffffff" text-anchor="middle">Long</text>
      <text x="252" y="80" font-family="Arial, sans-serif" font-size="10" fill="#ffffff" text-anchor="middle">>15000 tokens</text>
    </g>
    
    <!-- Markdown Grouping Layer -->
    <g transform="translate(20, 250)">
      <rect x="0" y="0" width="310" height="90" rx="10" fill="#183869" stroke="#3a7bd5" stroke-width="2.5" />
      <text x="155" y="25" font-family="Arial, sans-serif" font-size="18" fill="#ffffff" text-anchor="middle" font-weight="bold">Markdown Grouping Layer</text>
      
      <!-- Similarity Detection -->
      <rect x="20" y="40" width="130" height="35" rx="5" fill="#254980" stroke="#6badfb" stroke-width="1.5" />
      <text x="85" y="62" font-family="Arial, sans-serif" font-size="12" fill="#ffffff" text-anchor="middle">Similarity Detection</text>
      
      <!-- Category Assignment -->
      <rect x="160" y="40" width="130" height="35" rx="5" fill="#254980" stroke="#6badfb" stroke-width="1.5" />
      <text x="225" y="62" font-family="Arial, sans-serif" font-size="12" fill="#ffffff" text-anchor="middle">Category Assignment</text>
    </g>
    
    <!-- Embeddings Bar -->
    <rect x="40" y="350" width="270" height="20" rx="10" fill="#0a1929" stroke="#ffb454" stroke-width="2.5" />
    <text x="175" y="365" font-family="Arial, sans-serif" font-size="12" fill="#ffffff" text-anchor="middle">OpenAI Embeddings (text-embedding-3-large)</text>
  </g>

  <!-- Vector DB and Search (Right Side) -->
  <g transform="translate(625, 175)">
    <rect x="0" y="0" width="150" height="260" rx="12" fill="#132b4a" stroke="#3a7bd5" stroke-width="4" />
    <text x="75" y="40" font-family="Arial, sans-serif" font-size="20" fill="#ffffff" text-anchor="middle">Vector DB</text>
    
    <!-- ChromaDB Icon -->
    <g transform="translate(25, 60)">
      <rect x="0" y="0" width="100" height="60" rx="6" fill="#183869" stroke="#3a7bd5" stroke-width="2.5" />
      <text x="50" y="35" font-family="Arial, sans-serif" font-size="16" fill="#ffffff" text-anchor="middle">ChromaDB</text>
    </g>
    
    <!-- Vector Representation -->
    <g transform="translate(35, 130)">
      <line x1="0" y1="10" x2="20" y2="0" stroke="#6badfb" stroke-width="2" />
      <line x1="20" y1="0" x2="40" y2="15" stroke="#6badfb" stroke-width="2" />
      <line x1="40" y1="15" x2="60" y2="5" stroke="#6badfb" stroke-width="2" />
      <line x1="60" y1="5" x2="80" y2="20" stroke="#6badfb" stroke-width="2" />
      
      <line x1="0" y1="30" x2="20" y2="40" stroke="#ffb454" stroke-width="2" />
      <line x1="20" y1="40" x2="40" y2="25" stroke="#ffb454" stroke-width="2" />
      <line x1="40" y1="25" x2="60" y2="35" stroke="#ffb454" stroke-width="2" />
      <line x1="60" y1="35" x2="80" y2="30" stroke="#ffb454" stroke-width="2" />
    </g>
    
    <!-- Search Engine -->
    <g transform="translate(25, 190)">
      <rect x="0" y="0" width="100" height="45" rx="8" fill="#183869" stroke="#ffb454" stroke-width="2.5" />
      <text x="50" y="20" font-family="Arial, sans-serif" font-size="14" fill="#ffffff" text-anchor="middle">Semantic</text>
      <text x="50" y="38" font-family="Arial, sans-serif" font-size="14" fill="#ffffff" text-anchor="middle">Search</text>
    </g>
  </g>
  
  <!-- Flow Arrows -->
  <g stroke="#6badfb" stroke-width="5" fill="none">
    <!-- Left to Center - Document Collection to Processing -->
    <path d="M 175 300 L 211 300" />
    <polygon points="210,295 215,300 210,305" fill="#6badfb" stroke="none" />
    
    <!-- Center to Right - Processing to Vector DB -->
    <path d="M 575 300 L 611 300" />
    <polygon points="610,295 615,300 610,305" fill="#6badfb" stroke="none" />
  </g>
  
  <!-- Utility Layer (Bottom) -->
  <g transform="translate(250, 510)">
    <rect x="0" y="0" width="300" height="70" rx="10" fill="#132b4a" stroke="#3a7bd5" stroke-width="3" />
    <text x="150" y="30" font-family="Arial, sans-serif" font-size="18" fill="#ffffff" text-anchor="middle" font-weight="bold">Utility Layer</text>
    
    <!-- Tokenizer -->
    <rect x="40" y="40" width="100" height="20" rx="5" fill="#254980" stroke="#6badfb" stroke-width="1.5" />
    <text x="90" y="55" font-family="Arial, sans-serif" font-size="12" fill="#ffffff" text-anchor="middle">Tokenizer</text>
    
    <!-- Chat -->
    <rect x="160" y="40" width="100" height="20" rx="5" fill="#254980" stroke="#6badfb" stroke-width="1.5" />
    <text x="210" y="55" font-family="Arial, sans-serif" font-size="12" fill="#ffffff" text-anchor="middle">Chat</text>
  </g>
  
  <!-- Dotted Line Connecting Utility Layer -->
  <g stroke="#3a7bd5" stroke-width="2" stroke-dasharray="5,5" fill="none">
    <path d="M 400 490 L 400 510" />
  </g>
</svg>
